<svg width="43" height="37" viewBox="0 0 43 37" fill="none" xmlns="http://www.w3.org/2000/svg">
<path d="M6.41016 35.7738V16.486L15.8958 8.44846L25.3815 11.4676L34.8676 5.34961V35.7738H6.41016Z" fill="#B7D2F9"/>
<path d="M9.07795 16.4863H3.74219V35.774H9.07795V16.4863Z" fill="#5A4A42"/>
<path d="M18.5619 8.44922H13.2266V35.7744H18.5619V8.44922Z" fill="#6A425A"/>
<path d="M28.0508 11.4668H22.7148V35.773H28.0508V11.4668Z" fill="#00A59B"/>
<path d="M37.5346 5.34961H32.1992V35.7736H37.5346V5.34961Z" fill="#255F86"/>
<path d="M41.2777 35.127H0V36.4201H41.2777V35.127Z" fill="#F69C2C"/>
<path d="M0.722656 18.1333L6.40925 16.4868L15.8949 8.44927L25.3806 11.4684L41.3908 1.19336" stroke="#F69C2C" stroke-width="0.841338" stroke-miterlimit="10" stroke-linecap="round" stroke-linejoin="round"/>
<path d="M7.45485 16.4855C7.45485 17.0963 6.98622 17.5918 6.40886 17.5918C5.83128 17.5918 5.36328 17.0965 5.36328 16.4855C5.36328 15.8745 5.83128 15.3789 6.40886 15.3789C6.98643 15.3791 7.45485 15.8745 7.45485 16.4855Z" fill="#F69C2C"/>
<path d="M16.9392 8.44857C16.9392 9.05938 16.4706 9.55493 15.8932 9.55493C15.3157 9.55493 14.8477 9.05959 14.8477 8.44857C14.8477 7.83734 15.3157 7.3418 15.8932 7.3418C16.4708 7.34201 16.9392 7.83734 16.9392 8.44857Z" fill="#F69C2C"/>
<path d="M25.3817 12.5749C25.9593 12.5749 26.4275 12.0794 26.4275 11.4681C26.4275 10.8568 25.9593 10.3613 25.3817 10.3613C24.8042 10.3613 24.3359 10.8568 24.3359 11.4681C24.3359 12.0794 24.8042 12.5749 25.3817 12.5749Z" fill="#F69C2C"/>
<path d="M35.9121 5.34877C35.9121 5.95958 35.4439 6.45513 34.8663 6.45513C34.2889 6.45513 33.8203 5.95979 33.8203 5.34877C33.8203 4.73732 34.2889 4.24219 34.8663 4.24219C35.4439 4.24219 35.9121 4.73732 35.9121 5.34877Z" fill="#F69C2C"/>
<path d="M39.3594 0.419922L42.1206 0.724062L41.1108 3.77265" stroke="#F69C2C" stroke-width="0.841338" stroke-miterlimit="10" stroke-linecap="round" stroke-linejoin="round"/>
</svg>
