<svg width="40" height="36" viewBox="0 0 40 36" fill="none" xmlns="http://www.w3.org/2000/svg">
<path d="M33.1295 31.7151C33.1295 32.3575 32.6588 32.8785 32.0783 32.8785H12.1058C11.5254 32.8785 11.0547 32.3575 11.0547 31.7151V3.79424C11.0547 3.15175 11.5254 2.63086 12.1058 2.63086H32.0784C32.6588 2.63086 33.1295 3.15175 33.1295 3.79424V31.7151H33.1295Z" fill="#FFC010"/>
<path d="M13.4609 4.87109V29.6713H30.9157V9.4479L24.0874 4.87109H13.4609Z" fill="#F6F6F6"/>
<path d="M30.9144 9.4479L24.0859 4.87109V9.44786C24.0859 9.44786 25.4137 9.00842 27.2287 9.00842C29.3907 9.00846 30.9144 9.4479 30.9144 9.4479Z" fill="#DADADA"/>
<path d="M27.9179 2.8052V1.7931H23.9964C23.8613 1.25173 23.3827 0.0716722 21.7681 0.00331497C19.9397 -0.0738666 19.4316 1.21664 19.2963 1.7931H15.8679V2.8052H15.1719V6.9383H28.6746V2.8052H27.9179ZM25.8952 3.22007C26.2089 3.22007 26.4632 3.47437 26.4632 3.78808C26.4632 4.10175 26.2089 4.35609 25.8952 4.35609C25.5815 4.35609 25.3272 4.10179 25.3272 3.78808C25.3272 3.47437 25.5815 3.22007 25.8952 3.22007ZM21.7499 0.431572C23.0059 0.484771 23.4223 1.32655 23.5572 1.7931H19.7321C19.8642 1.29619 20.305 0.369252 21.7499 0.431572ZM17.6745 3.22007C17.9882 3.22007 18.2425 3.47437 18.2425 3.78808C18.2425 4.10175 17.9882 4.35609 17.6745 4.35609C17.3607 4.35609 17.1065 4.10179 17.1065 3.78808C17.1065 3.47437 17.3607 3.22007 17.6745 3.22007ZM28.2788 6.54251H15.5676V3.20099H15.8679V5.79392H27.9179V3.20099H28.2788L28.2788 6.54251Z" fill="#1D1D1B"/>
<path d="M24.0882 6.9375H17.9961V7.73608H24.0882V6.9375Z" fill="#EF037F"/>
<path d="M24.0882 8.04102H17.9961V8.38141H24.0882V8.04102Z" fill="#EF037F"/>
<path d="M24.0882 8.60156H17.9961V8.94195H24.0882V8.60156Z" fill="#EF037F"/>
<path d="M17.7876 11.8918C17.7876 12.6141 17.202 13.1997 16.4797 13.1997C15.7574 13.1997 15.1719 12.6141 15.1719 11.8918C15.1719 11.1695 15.7574 10.584 16.4797 10.584C17.202 10.584 17.7876 11.1695 17.7876 11.8918Z" fill="#9D9D9C"/>
<path d="M16.4797 17.4692C17.2021 17.4692 17.7876 16.8837 17.7876 16.1614C17.7876 15.4391 17.2021 14.8535 16.4797 14.8535C15.7574 14.8535 15.1719 15.4391 15.1719 16.1614C15.1719 16.8837 15.7574 17.4692 16.4797 17.4692Z" fill="#9D9D9C"/>
<path d="M17.7876 20.4329C17.7876 21.1552 17.202 21.7407 16.4797 21.7407C15.7574 21.7407 15.1719 21.1552 15.1719 20.4329C15.1719 19.7106 15.7574 19.125 16.4797 19.125C17.202 19.125 17.7876 19.7106 17.7876 20.4329Z" fill="#9D9D9C"/>
<path d="M17.7876 25.2375C17.7876 25.9598 17.202 26.5453 16.4797 26.5453C15.7574 26.5453 15.1719 25.9598 15.1719 25.2375C15.1719 24.5152 15.7574 23.9297 16.4797 23.9297C17.202 23.9297 17.7876 24.5152 17.7876 25.2375Z" fill="#9D9D9C"/>
<path d="M28.6733 10.9043H18.9023V12.1855H28.6733V10.9043Z" fill="#EF037F"/>
<path d="M28.6733 12.5059H18.9023V12.9329H28.6733V12.5059Z" fill="#EF037F"/>
<path d="M28.6733 15.1484H18.9023V16.4296H28.6733V15.1484Z" fill="#EF037F"/>
<path d="M28.6733 16.75H18.9023V17.1771H28.6733V16.75Z" fill="#EF037F"/>
<path d="M28.6733 19.8984H18.9023V21.1796H28.6733V19.8984Z" fill="#EF037F"/>
<path d="M28.6733 21.5H18.9023V21.927H28.6733V21.5Z" fill="#EF037F"/>
<path d="M28.6733 24.2227H18.9023V25.5038H28.6733V24.2227Z" fill="#EF037F"/>
<path d="M28.6733 25.8242H18.9023V26.2512H28.6733V25.8242Z" fill="#EF037F"/>
<path d="M19.1163 9.53219C18.9487 9.32902 18.5579 9.38779 18.3896 9.52662L16.4516 11.1348L15.6429 10.3521C15.4569 10.172 15.1662 10.1705 14.9937 10.3488C14.8211 10.527 14.832 10.8176 15.0182 10.9976L16.1412 12.0846C16.302 12.2403 16.5409 12.2623 16.7142 12.1502C16.7288 12.1415 16.7431 12.1321 16.7566 12.1211L18.9967 10.2622C19.1647 10.1234 19.2839 9.73532 19.1163 9.53219Z" fill="#1C0336"/>
<path d="M19.1163 13.8701C18.9487 13.6669 18.5579 13.7257 18.3896 13.8645L16.4516 15.4727L15.6429 14.69C15.4569 14.5099 15.1662 14.5084 14.9937 14.6867C14.8211 14.8649 14.832 15.1554 15.0182 15.3355L16.1412 16.4225C16.302 16.5782 16.5409 16.6002 16.7142 16.4881C16.7288 16.4795 16.7431 16.47 16.7566 16.459L18.9967 14.6001C19.1647 14.4613 19.2839 14.0732 19.1163 13.8701Z" fill="#1C0336"/>
<path d="M7.2811 23.4648L14.1758 25.4348L7.48241 32.1281L0.789062 25.4348L7.2811 23.4648Z" fill="#A07648"/>
<path d="M7.50487 36.0017L0.789062 33.5841V25.4355L7.50487 27.8532V36.0017Z" fill="#BC8C58"/>
<path d="M7.50781 36.0017L14.2236 33.5841V25.4355L7.50781 27.8532V36.0017Z" fill="#CA9E67"/>
<path d="M11.8724 33.5151L11.8528 26.2871L9.04134 25.4396L11.4508 24.6546L10.0188 24.2454L7.56248 24.9939L4.89389 24.1895L3.50166 24.6115L6.09759 25.4402L3.25391 26.3067V33.5151L4.73138 34.0524V26.844L7.58372 25.9146L10.395 26.812V34.0524L11.8724 33.5151Z" fill="#F9F09B"/>
<path d="M6.49203 14.9258L13.3868 16.8957L6.69335 23.589L0 16.8957L6.49203 14.9258Z" fill="#A07648"/>
<path d="M6.71581 27.4628L0 25.0451V16.8965L6.71581 19.3142V27.4628Z" fill="#BC8C58"/>
<path d="M6.71875 27.4628L13.4346 25.0451V16.8965L6.71875 19.3142V27.4628Z" fill="#CA9E67"/>
<path d="M11.0834 24.978L11.0637 17.75L8.25228 16.9025L10.6617 16.1174L9.22967 15.7083L6.77346 16.4568L4.10483 15.6523L2.7126 16.0744L5.30853 16.9031L2.46484 17.7696V24.978L3.94227 25.5152V18.3069L6.79461 17.3775L9.60587 18.2749V25.5152L11.0834 24.978Z" fill="#F9F09B"/>
<path d="M39.837 35.3681C39.837 35.7049 39.564 35.978 39.2273 35.978H27.0316C26.6948 35.978 26.4219 35.7049 26.4219 35.3681V19.1234C26.4219 18.7866 26.6949 18.5137 27.0316 18.5137H39.2273C39.564 18.5137 39.837 18.7867 39.837 19.1234V35.3681Z" fill="#352F2D"/>
<path d="M38.1091 19.7754H37.5386H36.7959H36.1297H34.8201H28.1488C27.8121 19.7754 27.5391 20.0484 27.5391 20.3852V23.1632C27.5391 23.5001 27.8122 23.773 28.1488 23.773H31.776H33.1159H38.1091C38.4459 23.773 38.7189 23.5 38.7189 23.1632V20.3852C38.7189 20.0484 38.4459 19.7754 38.1091 19.7754Z" fill="#88BFB7"/>
<path d="M36.1311 19.7754H34.8215L31.852 23.6404C31.8201 23.6818 31.7956 23.7267 31.7773 23.773H33.1172L36.0349 19.9757C36.082 19.9143 36.1138 19.8459 36.1311 19.7754Z" fill="#CCFEF8"/>
<path d="M35.326 22.1746C35.455 22.2736 35.6398 22.2494 35.7389 22.1205L37.5408 19.7754H36.7981L35.2719 21.7617C35.1728 21.8906 35.1971 22.0754 35.326 22.1746Z" fill="#CCFEF8"/>
<path d="M38.7011 34.0203C38.7011 34.3571 38.4281 34.6301 38.0913 34.6301H36.5668C36.23 34.6301 35.957 34.3571 35.957 34.0203V29.8872C35.957 29.5504 36.23 29.2773 36.5668 29.2773H38.0913C38.4282 29.2773 38.7011 29.5504 38.7011 29.8872V34.0203Z" fill="#D80B7F"/>
<path d="M30.0297 34.208C30.0297 34.4417 29.8401 34.6312 29.6064 34.6312H27.9897C27.7559 34.6312 27.5664 34.4417 27.5664 34.208V32.5912C27.5664 32.3575 27.7559 32.168 27.9897 32.168H29.6064C29.8401 32.168 30.0297 32.3575 30.0297 32.5912V34.208Z" fill="#DADADA"/>
<path d="M32.7992 34.208C32.7992 34.4417 32.6097 34.6312 32.376 34.6312H30.7591C30.5254 34.6312 30.3359 34.4417 30.3359 34.208V32.5912C30.3359 32.3575 30.5254 32.168 30.7591 32.168H32.376C32.6097 32.168 32.7992 32.3575 32.7992 32.5912V34.208Z" fill="#DADADA"/>
<path d="M35.6468 34.208C35.6468 34.4417 35.4573 34.6312 35.2236 34.6312H33.6069C33.3731 34.6312 33.1836 34.4417 33.1836 34.208V32.5912C33.1836 32.3575 33.3731 32.168 33.6069 32.168H35.2236C35.4573 32.168 35.6468 32.3575 35.6468 32.5912V34.208Z" fill="#DADADA"/>
<path d="M30.0297 31.3173C30.0297 31.5511 29.8401 31.7406 29.6064 31.7406H27.9897C27.7559 31.7406 27.5664 31.5511 27.5664 31.3173V29.7006C27.5664 29.4669 27.7559 29.2773 27.9897 29.2773H29.6064C29.8401 29.2773 30.0297 29.4669 30.0297 29.7006V31.3173Z" fill="#DADADA"/>
<path d="M32.7992 31.3173C32.7992 31.5511 32.6097 31.7406 32.376 31.7406H30.7591C30.5254 31.7406 30.3359 31.5511 30.3359 31.3173V29.7006C30.3359 29.4669 30.5254 29.2773 30.7591 29.2773H32.376C32.6097 29.2773 32.7992 29.4669 32.7992 29.7006V31.3173Z" fill="#DADADA"/>
<path d="M35.6468 31.3173C35.6468 31.5511 35.4573 31.7406 35.2236 31.7406H33.6069C33.3731 31.7406 33.1836 31.5511 33.1836 31.3173V29.7006C33.1836 29.4669 33.3731 29.2773 33.6069 29.2773H35.2236C35.4573 29.2773 35.6468 29.4669 35.6468 29.7006V31.3173Z" fill="#DADADA"/>
<path d="M29.9906 28.4209C29.9906 28.6546 29.801 28.8441 29.5673 28.8441H27.9506C27.7169 28.8441 27.5273 28.6546 27.5273 28.4209V26.8041C27.5273 26.5703 27.7169 26.3809 27.9506 26.3809H29.5673C29.801 26.3809 29.9906 26.5703 29.9906 26.8041V28.4209Z" fill="#DADADA"/>
<path d="M32.764 28.4209C32.764 28.6546 32.5746 28.8441 32.3408 28.8441H30.7241C30.4903 28.8441 30.3008 28.6546 30.3008 28.4209V26.8041C30.3008 26.5703 30.4903 26.3809 30.7241 26.3809H32.3408C32.5746 26.3809 32.764 26.5703 32.764 26.8041V28.4209Z" fill="#DADADA"/>
<path d="M35.6077 28.4209C35.6077 28.6546 35.4182 28.8441 35.1845 28.8441H33.5678C33.3341 28.8441 33.1445 28.6546 33.1445 28.4209V26.8041C33.1445 26.5703 33.3341 26.3809 33.5678 26.3809H35.1845C35.4182 26.3809 35.6077 26.5703 35.6077 26.8041V28.4209Z" fill="#DADADA"/>
<path d="M38.7011 26.9907C38.7011 26.6539 38.4281 26.3809 38.0913 26.3809H36.5668C36.23 26.3809 35.957 26.654 35.957 26.9907V28.2343C35.957 28.5712 36.23 28.8441 36.5668 28.8441H38.0913C38.4282 28.8441 38.7011 28.5711 38.7011 28.2343V26.9907Z" fill="#F0037F"/>
<path d="M35.6073 25.1111C35.6073 25.4479 35.3344 25.7209 34.9976 25.7209H28.1372C27.8003 25.7209 27.5273 25.4479 27.5273 25.1111V25.0941C27.5273 24.7573 27.8003 24.4844 28.1372 24.4844H34.9976C35.3345 24.4844 35.6073 24.7574 35.6073 25.0941V25.1111Z" fill="#FFC010"/>
<path d="M38.7011 25.1535C38.7011 25.4902 38.4282 25.7633 38.0914 25.7633H36.7387C36.4019 25.7633 36.1289 25.4902 36.1289 25.1535V25.0941C36.1289 24.7573 36.402 24.4844 36.7387 24.4844H38.0914C38.4282 24.4844 38.7011 24.7574 38.7011 25.0941V25.1535Z" fill="#E2872A"/>
<path d="M8.68872 7.86103C8.32828 8.01535 7.91117 7.84811 7.75706 7.48774L7.01834 5.76121C6.86411 5.40076 7.03139 4.98357 7.39171 4.82933L7.84032 4.63747C8.20072 4.48328 8.61796 4.65048 8.77207 5.0108L9.51087 6.73729C9.66502 7.09778 9.49791 7.51494 9.13742 7.66913L8.68872 7.86103Z" fill="#352F2D"/>
<path d="M15.8919 20.9049C15.8868 20.8268 15.8693 20.7483 15.8368 20.6722L10.4876 8.16981L10.1736 7.43574L9.89565 6.78619C9.89012 6.77298 9.88345 6.76078 9.8772 6.74832C9.71072 6.41468 9.31117 6.26421 8.96398 6.4127L7.90345 6.8665C7.54309 7.02069 7.37589 7.43785 7.53 7.79829L7.80786 8.44779L8.12199 9.18199L13.4713 21.6844C13.5054 21.7644 13.553 21.8341 13.6098 21.8936C13.6303 21.9223 13.6516 21.95 13.6735 21.9772C14.2301 22.6729 15.1876 22.9529 15.3784 22.8713C15.6173 22.7692 16.0779 21.8211 15.8919 20.9049Z" fill="#D80B7E"/>
<path d="M15.75 23.6353C15.6298 23.6866 15.4907 23.6309 15.4394 23.5108L14.9567 22.3825C14.9052 22.2623 14.9609 22.1232 15.0809 22.0719C15.2012 22.0204 15.3403 22.0762 15.3917 22.1964L15.8744 23.3248C15.9258 23.4448 15.8701 23.584 15.75 23.6353Z" fill="#352F2D"/>
<path d="M15.3761 22.871C15.6151 22.7689 16.0757 21.8209 15.8897 20.9047C15.8846 20.8265 15.8671 20.7481 15.8346 20.672L10.4854 8.16953L10.1714 7.43546L9.89345 6.78592C9.88792 6.7727 9.88125 6.7605 9.875 6.74805L13.6713 21.9769C14.2279 22.6727 15.1854 22.9526 15.3761 22.871Z" fill="#ED37A4"/>
<path d="M10.1704 7.43722L7.80469 8.44922L8.11874 9.18336L10.4844 8.17136L10.1704 7.43722Z" fill="#352F2D"/>
<path d="M11.1911 12.3496C11.0434 12.413 10.8725 12.3445 10.8093 12.1967L8.77358 7.43842C8.71029 7.29073 8.77878 7.11994 8.92659 7.0567C9.0742 6.99353 9.24499 7.06214 9.30836 7.20975L11.3441 11.9679C11.4073 12.1157 11.3387 12.2865 11.1911 12.3496Z" fill="#352F2D"/>
</svg>
